<?xml version="1.0" standalone="no"?><!DOCTYPE svg PUBLIC "-//W3C//DTD SVG 1.1//EN" "http://www.w3.org/Graphics/SVG/1.1/DTD/svg11.dtd"><svg t="1600050605114" class="icon" viewBox="0 0 1025 1024" version="1.1" xmlns="http://www.w3.org/2000/svg" p-id="3007" width="32.03125" height="32" xmlns:xlink="http://www.w3.org/1999/xlink"><defs><style type="text/css"></style></defs><path d="M59 179.033C59 140.907 89.906 110 128.031 110h584.466c38.125 0 69.032 30.907 69.032 69.033l-0.001 73.635H864.4c40.648 0 73.6 32.952 73.6 73.6V869.4c0 40.648-32.952 73.6-73.6 73.6H132.6C91.952 943 59 910.048 59 869.4V179.033z m879 294.542H537.603c-17.606 0-31.911 14.13-32.196 31.667l-0.004 0.533v184.119c0 17.606 14.13 31.911 31.668 32.196l0.532 0.004H938l-0.001-36.818H573.823c-16.183 0-29.302-10.15-29.302-22.67V533.062c0-12.52 13.119-22.67 29.302-22.67h364.176l0.001-36.817zM712.497 169.829H128.031a9.205 9.205 0 0 0-9.193 8.745l-0.01 0.46v71.333h602.874v-71.334a9.205 9.205 0 0 0-8.745-9.193l-0.46-0.011z" fill="#333333" p-id="3008"></path></svg>